<svg version="1" xmlns="http://www.w3.org/2000/svg" width="933.333" height="933.333" viewBox="0 0 700.000000 700.000000"><path d="M344.5 26.3c-2.2 1.2-4.1 2.5-4.3 2.9-.2.5-.8.8-1.2.8-.5 0-3.3 1.4-6.2 3.1-2.9 1.8-14.1 8.2-24.8 14.4-10.7 6.2-25.1 14.6-32 18.6-6.9 4-14.3 8.2-16.5 9.4-2.2 1.3-13.7 7.9-25.5 14.7-11.8 6.9-23 13.4-24.9 14.4-1.8 1-4.1 2.3-5 2.9-.9.5-4.7 2.7-8.5 4.9-7.7 4.3-7.7 4.5.9 9.1 2.8 1.4 5.7 3 6.5 3.6 6.4 4 55.3 31.9 56.1 31.9.5 0 .9.3.9.7 0 .5 2.2 1.8 4.8 3.1l4.7 2.3 11.2-6.5c6.2-3.6 13.4-7.7 16-9.2 4.6-2.5 18.9-10.8 41.8-24.1 9.4-5.5 11.2-6.3 13.2-5.4 2.6 1.2 40.8 23.1 46.5 26.8 2.1 1.2 3.9 2.3 4.2 2.3.2 0 6.5 3.6 14.1 8s13.9 8 14.1 8c.2 0 .3-21 .2-46.6l-.3-46.6-26-15.1c-14.3-8.2-27.8-16-30-17.2-2.2-1.2-8.3-4.8-13.6-7.9-5.3-3.1-10.2-5.6-11-5.6-.8 0-3.2 1-5.4 2.3zM471.1 140.3v46.4l8.2 4.7c4.5 2.5 10.2 5.8 12.7 7.3 2.5 1.4 6.1 3.5 8 4.6 1.9 1 9.4 5.3 16.5 9.5 7.2 4.1 14.6 8.4 16.5 9.5 1.9 1.1 7 4 11.3 6.4l7.7 4.5v46.4c0 25.5.3 46.4.6 46.4.4 0 5.9-3 12.3-6.7 6.4-3.8 12.8-7.5 14.2-8.3 1.4-.8 6.3-3.7 11-6.3 4.6-2.6 9.1-5.2 9.9-5.8.8-.5 8.5-4.9 17-9.8l15.5-8.9.2-46.8.3-46.9-29.6-17c-16.3-9.4-31.5-18.1-33.8-19.4-5.8-3.3-20.8-12-22.6-13-.8-.5-11.6-6.8-24-13.9-12.4-7.2-28.4-16.4-35.7-20.6-7.2-4.2-13.8-7.9-14.6-8.2-1.4-.5-1.5 5-1.6 45.9zM141.5 143.7c-3.3 1.9-7.8 4.5-10 5.8-2.2 1.2-9.6 5.5-16.5 9.5s-14 8.1-15.8 9.1c-19.9 11.4-29.9 17.3-30.9 18.1-1 .8-1.3 20.8-1.3 94v92.9l5.3-2.9c2.8-1.7 6.8-3.9 8.7-5 1.9-1.1 12.1-6.9 22.5-12.9 10.5-6.1 24.7-14.3 31.8-18.4l12.7-7.3v-93.4l38.7-22.4c21.3-12.2 39.3-22.4 40-22.6.7-.2 1.3-.7 1.3-1.2 0-.7-19.4-12.2-44-26.2-17.1-9.8-27.2-15.6-30.9-18-2.5-1.5-4.7-2.8-5-2.7-.4 0-3.3 1.7-6.6 3.6zM228.5 233.4l-40 23.2v93.3c-.1 93-.1 93.3 2 94.6 1.1.7 15.3 8.9 31.5 18.3 16.2 9.3 31.1 17.9 33 19 1.9 1.2 5.9 3.4 8.8 5.1l5.2 2.9v-93c0-82.9.2-93 1.5-92.4.9.3 11.8 6.5 24.3 13.7 12.5 7.2 25.2 14.5 28.2 16.2 3 1.6 6 3.3 6.5 3.7.6.4 5.4 3.3 10.8 6.4l9.7 5.6 25.8-14.9c14.1-8.2 27.3-15.8 29.2-16.9 1.9-1.1 7.9-4.5 13.3-7.6 5.3-3.1 10.4-5.9 11.2-6.2 1.3-.5 1.5 10.2 1.5 92.4v93.1l5.8-3.3c3.1-1.8 14-8.2 24.2-14.1s20.1-11.6 22-12.6c1.9-1.1 9.1-5.2 16-9.2l12.5-7.3V256.5l-16.8-9.7c-9.3-5.3-21.4-12.3-27-15.5-5.6-3.3-16.2-9.4-23.4-13.6L431 210l-6.7 3.8c-3.8 2.1-12.9 7.4-20.3 11.7-7.4 4.3-15.3 8.8-17.5 10-2.2 1.2-8.7 5-14.3 8.3-5.7 3.4-10.6 6.2-10.8 6.2-.3 0-2.9 1.5-5.8 3.4l-5.3 3.4-10.4-6c-38.2-22.1-48.2-27.8-49-27.8-.5 0-.9-.5-.9-1 0-.6-.4-1-1-1-.5 0-4.8-2.3-9.4-5-4.7-2.8-9.1-5.2-9.8-5.5-.7-.2-19.3 10.1-41.3 22.9zM624 331.7c-4.1 2.5-9.7 5.8-12.5 7.3-2.7 1.5-10.6 6-17.5 10-6.8 4-13.8 8.1-15.5 9-1.6.9-5.6 3.2-8.9 5.1-3.2 1.9-8.4 4.8-11.5 6.5l-5.6 3.2-.3 47.1c-.2 42.5-.4 47.2-1.9 47.8-.8.3-5.6 3-10.5 6-4.9 2.9-9.1 5.3-9.4 5.3-.3 0-1.8.8-3.2 1.9-1.5 1-4.7 2.9-7.2 4.3-13.8 7.6-45.7 26.2-46.8 27.3-1.3 1.2 2.8 4 19.8 13.2 2.5 1.4 5 2.8 5.5 3.3.6.4 3 1.9 5.5 3.2 2.5 1.4 14.3 8.2 26.4 15.2l21.8 12.6 3.2-1.9c1.7-1 4.7-2.8 6.6-3.9 1.9-1 14.5-8.3 27.9-16.1 13.4-7.7 24.5-14.1 24.6-14.1.1 0 4.2-2.4 9.1-5.3l8.9-5.3.3-93.2c.1-51.3-.1-93.2-.5-93.1-.5 0-4.2 2.1-8.3 4.6zM139.5 378.1c-8.7 5.1-57.7 33.4-62.5 36.1-1.9 1.1-5 2.9-6.7 4l-3.3 2V513.5l5.8 3.1c3.1 1.7 19.6 11.2 36.7 21.1 17.1 9.9 47.7 27.5 68 39.3 20.4 11.7 39.9 23 43.4 25.1 3.6 2.1 6.8 3.6 7.2 3.3.4-.2.8-21.1.7-46.3v-45.8l-16.2-9.4c-8.8-5.2-18.1-10.5-20.6-11.8-2.5-1.3-5.6-3.1-7-4.1-1.4-.9-3.2-2-4-2.4-.8-.4-2.4-1.2-3.5-1.9s-8.2-4.8-15.8-9.1l-13.7-8v-46.3c0-25.5-.3-46.3-.7-46.3-.5 0-3.9 1.9-7.8 4.1zM269.2 583.6l.3 46.6 29 16.9c16 9.3 29.9 17.3 31.1 17.8 1.1.5 5.6 3 10 5.5 4.3 2.5 8.6 5 9.4 5.4.9.6 4-.7 9.3-4 4.3-2.6 8-4.8 8.2-4.8.2 0 3.9-2.1 8.2-4.7 4.3-2.5 9.4-5.5 11.3-6.5 1.9-1 5.1-2.8 7-3.9 3.8-2.3 43.6-25.3 53.5-31 3.3-1.9 6.8-3.9 7.7-4.4 1-.6 14.2-8.2 29.3-16.9 22-12.7 27.3-16.2 26.3-17.1-.7-.7-17.9-10.8-38.3-22.5-20.3-11.7-37.4-21.6-37.9-22.1-.6-.5-1.6-.9-2.2-.9-.7 0-18.9 10.1-40.3 22.5-21.5 12.4-39.7 22.8-40.4 23.1-.7.2-4.7-1.5-8.8-3.9-9.6-5.7-37.1-21.7-42.9-24.9-2.5-1.4-10-5.7-16.7-9.7-6.8-3.9-12.5-7.1-12.8-7.1-.3 0-.4 21-.3 46.6z"/></svg>